HIERARCHY
ROOT joint_0
{
	OFFSET 0.000000 0.000000 0.000000
	CHANNELS 6 Xposition Yposition Zposition Zrotation Yrotation Xrotation 
	JOINT joint_1
	{
		OFFSET 11.612000 -0.419000 106.198000
		CHANNELS 3 Zrotation Yrotation Xrotation
		JOINT joint_2
		{
			OFFSET -1.708000 -1.022000 97.564090
			CHANNELS 3 Zrotation Yrotation Xrotation
			JOINT joint_3
			{
				OFFSET -4.121000 -1.538000 97.375000
				CHANNELS 3 Zrotation Yrotation Xrotation
				JOINT joint_4
				{
					OFFSET 5.442000 -2.123000 132.795900
					CHANNELS 3 Zrotation Yrotation Xrotation
					JOINT joint_5
					{
						OFFSET 21.935000 0.195000 82.975100
						CHANNELS 3 Zrotation Yrotation Xrotation
						End Site
						{
							OFFSET 0.000000 0.000000 0.000000
						}
					}
				}
				JOINT joint_6
				{
					OFFSET 4.262000 -30.048000 73.899900
					CHANNELS 3 Zrotation Yrotation Xrotation
					JOINT joint_7
					{
						OFFSET 9.731000 -136.810010 -21.963010
						CHANNELS 3 Zrotation Yrotation Xrotation
						JOINT joint_8
						{
							OFFSET 33.360000 -35.709000 -267.597900
							CHANNELS 3 Zrotation Yrotation Xrotation
							JOINT joint_9
							{
								OFFSET 36.156000 -29.759000 -240.558040
								CHANNELS 3 Zrotation Yrotation Xrotation
								End Site
								{
									OFFSET 0.000000 0.000000 0.000000
								}
							}
						}
					}
				}
				JOINT joint_10
				{
					OFFSET 2.027000 27.734000 74.914920
					CHANNELS 3 Zrotation Yrotation Xrotation
					JOINT joint_11
					{
						OFFSET -5.183000 136.784000 -23.604980
						CHANNELS 3 Zrotation Yrotation Xrotation
						JOINT joint_12
						{
							OFFSET 29.806000 37.229000 -267.809940
							CHANNELS 3 Zrotation Yrotation Xrotation
							JOINT joint_13
							{
								OFFSET 36.890000 46.524990 -237.772030
								CHANNELS 3 Zrotation Yrotation Xrotation
								End Site
								{
									OFFSET 0.000000 0.000000 0.000000
								}
							}
						}
					}
				}
			}
		}
	}
	JOINT joint_14
	{
		OFFSET -7.290000 -102.873990 -124.314940
		CHANNELS 3 Zrotation Yrotation Xrotation
		JOINT joint_15
		{
			OFFSET -15.466000 -19.909010 -438.533020
			CHANNELS 3 Zrotation Yrotation Xrotation
			JOINT joint_16
			{
				OFFSET -26.899000 -18.922000 -464.797000
				CHANNELS 3 Zrotation Yrotation Xrotation
				JOINT joint_17
				{
					OFFSET 179.329000 -12.011000 -84.174000
					CHANNELS 3 Zrotation Yrotation Xrotation
					End Site
					{
						OFFSET 0.000000 0.000000 0.000000
					}
				}
			}
		}
	}
	JOINT joint_18
	{
		OFFSET -6.225000 101.546000 -125.479980
		CHANNELS 3 Zrotation Yrotation Xrotation
		JOINT joint_19
		{
			OFFSET -13.973000 7.996000 -438.963010
			CHANNELS 3 Zrotation Yrotation Xrotation
			JOINT joint_20
			{
				OFFSET -44.294000 5.716000 -463.813970
				CHANNELS 3 Zrotation Yrotation Xrotation
				JOINT joint_21
				{
					OFFSET 178.505000 -4.689000 -85.139000
					CHANNELS 3 Zrotation Yrotation Xrotation
					End Site
					{
						OFFSET 0.000000 0.000000 0.000000
					}
				}
			}
		}
	}
}
MOTION
Frames: 16
Frame Time: 0.016667
-85.573000 -43.448000 1128.842040 2.850120 -0.700440 0.708310 -1.120310 1.946850 0.685040 -1.165920 -0.484730 -0.293750 -1.130650 0.547630 0.170480 -0.025040 1.219560 0.085080 0.000000 0.000000 0.000000 -0.417380 -0.576480 2.464200 -0.033230 -0.934170 -1.700490 0.147870 1.000290 1.803980 0.000000 0.000000 0.000000 -2.233440 -1.819220 -0.363450 -0.299130 -1.542540 -1.905830 0.408750 1.261240 1.022340 0.000000 0.000000 0.000000 0.181500 2.158290 -0.455180 0.124520 3.388070 -0.391580 0.426500 -4.166520 -0.078880 0.000000 0.000000 0.000000 1.550480 2.020250 0.567140 1.540350 0.728020 0.241240 1.478720 -1.111280 0.674130 0.000000 0.000000 0.000000 
-83.716000 -44.237000 1129.376950 3.122750 -0.267550 0.770290 -0.882700 1.896390 0.660130 -0.924130 -0.388550 -0.253510 -0.895040 0.409730 0.146320 -0.010310 0.826560 0.032000 0.000000 0.000000 0.000000 -0.794530 0.045480 2.293170 -0.132070 -0.366060 -2.017360 0.414470 -0.006260 2.743150 0.000000 0.000000 0.000000 -2.401050 -1.902370 -0.576820 -0.291380 -1.569860 -1.438010 0.285500 0.996260 0.574840 0.000000 0.000000 0.000000 0.124030 1.934120 -0.474570 0.066550 3.153110 -0.377960 0.357940 -4.109210 -0.107090 0.000000 0.000000 0.000000 1.442820 1.675400 0.619830 1.441070 0.582490 0.126060 1.375500 -0.976640 0.628500 0.000000 0.000000 0.000000 
-80.834000 -45.300000 1130.135990 3.534540 0.375900 0.859810 -0.565280 1.843440 0.633160 -0.601130 -0.264210 -0.195750 -0.580840 0.223950 0.105350 0.016770 0.183600 -0.064760 0.000000 0.000000 0.000000 -1.441830 0.931380 1.880280 -0.246330 0.451260 -2.200910 0.781810 -1.498790 3.975160 0.000000 0.000000 0.000000 -2.610950 -1.985510 -0.802960 -0.287180 -1.584910 -0.842160 0.093160 0.564140 -0.112860 0.000000 0.000000 0.000000 0.035240 1.612780 -0.499250 -0.021730 2.796730 -0.363540 0.253490 -4.030400 -0.150640 0.000000 0.000000 0.000000 1.283520 1.178980 0.697100 1.293540 0.347930 -0.040240 1.222910 -0.789340 0.560730 0.000000 0.000000 0.000000 
-76.460000 -46.426000 1130.771970 4.078050 1.161900 0.933680 -0.350310 1.994140 0.617170 -0.383090 -0.262300 -0.147730 -0.366670 0.186220 0.072770 0.027900 -1.085160 -0.101060 0.000000 0.000000 0.000000 -1.718040 1.823120 1.143780 -0.329800 1.386810 -1.877800 1.122040 -3.175700 4.959530 0.000000 0.000000 0.000000 -2.713700 -1.828270 -0.659430 -0.331890 -1.413230 -0.577380 -0.237330 -0.379720 -1.050470 0.000000 0.000000 0.000000 -0.101820 1.276710 -0.461080 -0.151160 2.354790 -0.393240 0.102570 -3.952950 -0.215980 0.000000 0.000000 0.000000 1.074380 0.670800 0.811370 1.094300 -0.043270 -0.195750 1.024430 -0.568720 0.471920 0.000000 0.000000 0.000000 
-69.960000 -47.678000 1131.182980 4.799630 2.197280 0.968220 -0.326670 2.528890 0.634320 -0.357980 -0.469680 -0.107160 -0.337120 0.397910 0.051480 -0.004720 -3.615360 -0.007640 0.000000 0.000000 0.000000 -1.355390 2.722560 -0.317300 -0.339280 2.550410 -0.464110 1.443380 -5.394350 5.551940 0.000000 0.000000 0.000000 -2.521140 -1.210860 0.123040 -0.471220 -0.893640 -0.830290 -0.875410 -2.486910 -2.496170 0.000000 0.000000 0.000000 -0.302570 0.965740 -0.284370 -0.319910 1.599830 -0.538360 -0.110660 -3.796180 -0.305060 0.000000 0.000000 0.000000 0.779220 0.190980 1.006160 0.801940 -0.843650 -0.323520 0.747660 -0.219210 0.349210 0.000000 0.000000 0.000000 
-61.968000 -48.994000 1131.469970 5.648970 3.355900 0.999230 -0.411450 3.294800 0.705430 -0.435890 -0.737060 -0.082320 -0.407250 0.668170 0.027710 -0.076170 -6.847420 0.125250 0.000000 0.000000 0.000000 -0.771100 3.622100 -1.995740 -0.321740 3.808120 1.404860 1.713440 -7.746850 5.879210 0.000000 0.000000 0.000000 -2.147360 -0.350140 1.020110 -0.630010 -0.164890 -1.091120 -1.667410 -5.142240 -4.207730 0.000000 0.000000 0.000000 -0.549180 0.661770 -0.032810 -0.526340 0.752080 -0.738150 -0.368250 -3.608760 -0.412640 0.000000 0.000000 0.000000 0.436750 -0.275480 1.252680 0.458360 -1.813780 -0.449780 0.429330 0.207820 0.208990 0.000000 0.000000 0.000000 
-53.921000 -49.979000 1131.586060 6.478130 4.242090 1.062720 -0.524260 3.953560 0.800340 -0.535530 -0.869080 -0.103900 -0.500370 0.784830 0.024480 -0.148470 -9.302300 0.200990 0.000000 0.000000 0.000000 -0.146080 4.267050 -2.872790 -0.330260 4.718570 2.474180 1.799480 -8.816150 5.899370 0.000000 0.000000 0.000000 -1.997700 0.368580 1.458560 -0.703460 0.511400 -1.074030 -2.192950 -6.802630 -5.415800 0.000000 0.000000 0.000000 -0.811640 0.336290 0.138930 -0.786060 0.524990 -0.818670 -0.634000 -3.655770 -0.539350 0.000000 0.000000 0.000000 0.158760 -0.700190 1.441110 0.184640 -2.266910 -0.575130 0.168400 0.410370 0.090510 0.000000 0.000000 0.000000 
-46.191000 -50.367000 1131.392940 7.277340 4.684330 1.193600 -0.660280 4.307260 0.832260 -0.658720 -0.851430 -0.174250 -0.618090 0.772500 0.066450 -0.186820 -10.431570 0.198030 0.000000 0.000000 0.000000 0.836620 4.561350 -2.498060 -0.410900 5.119780 2.054970 1.672810 -7.846320 5.821450 0.000000 0.000000 0.000000 -2.437190 0.883170 1.365590 -0.642900 1.130620 -0.859590 -2.288170 -6.860360 -5.920320 0.000000 0.000000 0.000000 -1.093400 -0.041880 0.087930 -1.130670 1.319000 -0.624040 -0.903780 -4.143910 -0.696890 0.000000 0.000000 0.000000 -0.016900 -1.059990 1.487000 0.023970 -1.903450 -0.708990 -0.007100 0.199640 0.001900 0.000000 0.000000 0.000000 
-38.406000 -50.423000 1131.029050 8.060890 4.869510 1.349680 -0.822630 4.551450 0.830520 -0.811160 -0.805790 -0.256940 -0.764630 0.760740 0.131490 -0.200970 -10.836570 0.156440 0.000000 0.000000 0.000000 2.093470 4.605720 -1.473400 -0.513230 5.201360 0.888460 1.414070 -5.664390 5.598070 0.000000 0.000000 0.000000 -3.190380 1.258390 1.010660 -0.513160 1.679720 -0.635450 -2.111540 -5.966330 -5.916340 0.000000 0.000000 0.000000 -1.394450 -0.456280 -0.070790 -1.531460 2.731690 -0.287540 -1.178410 -4.838270 -0.869800 0.000000 0.000000 0.000000 -0.133560 -1.397400 1.448210 -0.070610 -1.013950 -0.814080 -0.130200 -0.255320 -0.068210 0.000000 0.000000 0.000000 
-30.894000 -50.552000 1130.864010 8.720770 4.956540 1.437200 -0.934120 4.931420 0.920530 -0.915190 -0.824390 -0.321700 -0.862220 0.806780 0.182370 -0.190950 -10.784310 0.076080 0.000000 0.000000 0.000000 2.987800 4.451960 -0.545210 -0.546350 5.057540 0.048760 1.049680 -3.289750 4.701910 0.000000 0.000000 0.000000 -3.803340 1.316440 0.628410 -0.386100 1.877420 -0.596140 -1.721430 -4.505540 -5.220490 0.000000 0.000000 0.000000 -1.686170 -0.883160 -0.104830 -1.920840 4.279670 -0.063630 -1.439520 -5.396710 -1.026690 0.000000 0.000000 0.000000 -0.203220 -1.802720 1.421510 -0.112670 0.210640 -0.818490 -0.197250 -0.764730 -0.113130 0.000000 0.000000 0.000000 
-24.067000 -50.963000 1130.984990 9.217580 5.005790 1.381700 -0.955990 5.616690 1.237700 -0.930760 -0.957250 -0.374380 -0.868810 0.943730 0.210260 -0.148330 -10.338480 -0.058030 0.000000 0.000000 0.000000 3.172450 4.028760 0.016070 -0.480690 4.609040 0.013880 0.481200 -0.848590 2.545400 0.000000 0.000000 0.000000 -4.066200 0.842700 0.305660 -0.254920 1.466210 -0.886850 -1.004650 -2.253250 -3.464130 0.000000 0.000000 0.000000 -1.991490 -1.432450 0.158930 -2.316750 5.963720 -0.106260 -1.717660 -5.741560 -1.176370 0.000000 0.000000 0.000000 -0.208970 -2.436710 1.461230 -0.078970 1.915160 -0.668040 -0.174590 -1.337960 -0.117340 0.000000 0.000000 0.000000 
-17.512000 -51.446000 1131.305050 9.587130 4.956710 1.244270 -0.923300 6.438780 1.665560 -0.892410 -1.144230 -0.423690 -0.820200 1.120220 0.228700 -0.084830 -9.424610 -0.190600 0.000000 0.000000 0.000000 2.966010 3.393270 0.524800 -0.456750 3.920190 0.273520 -0.323940 1.783350 -0.433150 0.000000 0.000000 0.000000 -4.176240 0.053660 -0.061400 -0.087170 0.713980 -1.358530 -0.036330 0.481660 -0.869680 0.000000 0.000000 0.000000 -2.297530 -1.990780 0.564400 -2.708930 7.775590 -0.288750 -1.994500 -5.919880 -1.312920 0.000000 0.000000 0.000000 -0.174460 -3.130360 1.517090 0.002850 3.935960 -0.399360 -0.075920 -1.895210 -0.085540 0.000000 0.000000 0.000000 
-10.320000 -51.782000 1131.935060 9.836460 4.792390 1.132530 -0.872090 7.123030 1.965740 -0.836790 -1.300430 -0.459830 -0.757020 1.262540 0.239260 -0.038260 -8.090520 -0.208640 0.000000 0.000000 0.000000 2.710410 2.802530 1.012600 -0.530140 3.289610 0.575750 -1.160730 3.973730 -3.336070 0.000000 0.000000 0.000000 -4.277090 -0.572480 -0.435230 0.058400 0.122560 -1.818890 0.810280 2.573310 1.763830 0.000000 0.000000 0.000000 -2.512170 -2.213790 0.863810 -2.983780 9.239170 -0.429060 -2.179800 -5.878180 -1.391420 0.000000 0.000000 0.000000 -0.160690 -3.491730 1.549900 0.051800 5.635810 -0.119170 0.015940 -2.187090 -0.050390 0.000000 0.000000 0.000000 
-1.973000 -51.893000 1132.926030 9.930650 4.456930 1.093920 -0.809750 7.548180 2.010140 -0.775220 -1.397370 -0.473530 -0.692700 1.359000 0.242710 -0.034790 -6.177280 -0.046570 0.000000 0.000000 0.000000 2.559250 2.346380 1.423560 -0.659770 2.838080 1.063420 -1.980830 5.607180 -6.206270 0.000000 0.000000 0.000000 -4.493560 -0.826950 -0.693070 0.145930 -0.095600 -2.433040 1.430060 3.590710 4.417560 0.000000 0.000000 0.000000 -2.570120 -1.857420 0.951140 -3.061890 10.085690 -0.446480 -2.209010 -5.624650 -1.383950 0.000000 0.000000 0.000000 -0.186290 -3.293190 1.538640 0.036110 6.764340 0.126820 0.049450 -2.173410 -0.034720 0.000000 0.000000 0.000000 
7.012000 -51.857000 1134.227050 9.907610 4.009750 1.082630 -0.730580 7.832170 1.915150 -0.702000 -1.473110 -0.472140 -0.619330 1.439660 0.240270 -0.070960 -3.844520 0.219000 0.000000 0.000000 0.000000 2.352170 1.945350 1.788550 -0.814340 2.446460 1.638540 -2.759990 6.773680 -9.023010 0.000000 0.000000 0.000000 -4.695180 -0.922210 -0.903380 0.194990 -0.166200 -3.082700 1.913140 4.037740 7.009950 0.000000 0.000000 0.000000 -2.526030 -1.175120 0.934370 -3.015630 10.599140 -0.402140 -2.138720 -5.208550 -1.320360 0.000000 0.000000 0.000000 -0.224860 -2.774640 1.511810 -0.006630 7.592890 0.350390 0.055240 -1.949940 -0.026460 0.000000 0.000000 0.000000 
15.996000 -51.684000 1135.796020 9.887960 3.618670 1.071320 -0.651270 8.039430 1.798120 -0.630070 -1.552190 -0.463280 -0.547530 1.517240 0.232050 -0.129060 -1.617900 0.474080 0.000000 0.000000 0.000000 1.953080 1.606300 2.128940 -0.903500 2.051630 1.825650 -3.192520 7.295370 -10.694940 0.000000 0.000000 0.000000 -4.651460 -1.012790 -1.178190 0.225430 -0.257230 -3.277710 2.179370 4.286830 8.527930 0.000000 0.000000 0.000000 -2.460190 -0.587360 0.877610 -2.955670 11.146610 -0.305780 -2.051500 -4.676330 -1.241450 0.000000 0.000000 0.000000 -0.263300 -2.268000 1.505020 -0.049210 8.290590 0.518200 0.057160 -1.538280 -0.014950 0.000000 0.000000 0.000000 
